<svg width="135" height="109" viewBox="0 0 135 109" fill="none" xmlns="http://www.w3.org/2000/svg"><path d="M1.60866 1.97031L133.425 0.564453L133.723 99.1796L1.41309 107.748L1.60866 1.97031Z" fill="#8C8C8C"></path><path d="M133.188 2.39062L84.6244 58.122L75.628 97.0139L60.8571 58.4607L1.58815 2.80109L1.25879 107.676L134.321 99.682L133.188 2.39062Z" fill="#F0F0F0" stroke="#0F0F0F" stroke-width="1.28835" stroke-miterlimit="20"></path><path d="M1.41309 107.748L73.4148 48.8154L133.723 99.18" fill="#F0F0F0"></path><path d="M1.41309 107.748L73.4148 48.8154L133.723 99.18" stroke="#0F0F0F" stroke-width="1.37687" stroke-miterlimit="20"></path><path d="M2.10278 107.184L73.5899 48.8046L134.485 99.6925L72.9208 44.4023L2.10278 107.184Z" fill="#0F0F0F"></path><path d="M1.44409 1.74414L62.9261 57.2806L58.0059 61.847L1.44409 1.74414Z" fill="#0F0F0F"></path><path d="M88.5462 59.8361L80.3733 53.2173L133.837 0.584961L133.868 1.34433L88.5462 59.8361Z" fill="#0F0F0F"></path><path d="M132.849 0.71875L1.9895 1.34471L73.9295 67.7073L132.849 0.71875Z" fill="#F0F0F0" stroke="#0F0F0F" stroke-width="1.37687" stroke-miterlimit="20"></path></svg>
